<?xml version="1.0" standalone="no"?>
<!DOCTYPE svg PUBLIC "-//W3C//DTD SVG 1.1//EN" "http://www.w3.org/Graphics/SVG/1.1/DTD/svg11.dtd">
<svg width="100%" height="100%" viewBox="0 0 1650 500" version="1.1" xmlns="http://www.w3.org/2000/svg" xmlns:xlink="http://www.w3.org/1999/xlink" xml:space="preserve" style="fill-rule:evenodd;clip-rule:evenodd;stroke-linejoin:round;stroke-miterlimit:1.41421;">
    <g transform="matrix(2,0,0,2,-0,-0)">
        <g transform="matrix(0.0794744,0,0,0.0794744,733.388,4.17176)">
            <path d="M112.916,324.788C192.022,212.572 323.419,139.101 472.009,139.101C713.61,139.101 909.759,333.34 909.759,572.589C909.759,811.837 713.61,1006.08 472.009,1006.08C348.676,1006.08 237.188,955.46 157.629,874.078L389.43,623.817C398.866,613.63 403.698,600.011 402.793,586.155C401.888,572.298 395.326,559.424 384.646,550.55L112.916,324.788Z" style="fill:rgb(243,151,27);"/>
        </g>
        <g transform="matrix(1.47281,0,0,0.503357,8.91449,-5.7373)">
            <g transform="matrix(0.678973,0,0,1.98666,0,0)">
                <path d="M132.69,189.941L10.01,189.941L10.01,173.706L104.736,30.151L12.939,30.151L12.939,11.475L130.005,11.475L130.005,27.71L35.278,171.143L132.69,171.143L132.69,189.941Z" style="fill:rgb(68,72,81);fill-rule:nonzero;"/>
            </g>
            <g transform="matrix(0.678973,0,0,1.98666,0,0)">
                <path d="M255.737,189.941L255.737,103.394C255.737,92.489 253.255,84.351 248.291,78.979C243.327,73.608 235.555,70.923 224.976,70.923C210.978,70.923 200.724,74.707 194.214,82.275C187.703,89.844 184.448,102.336 184.448,119.751L184.448,189.941L164.185,189.941L164.185,56.152L180.664,56.152L183.96,74.463L184.937,74.463C189.087,67.871 194.906,62.764 202.393,59.143C209.88,55.522 218.221,53.711 227.417,53.711C243.53,53.711 255.656,57.597 263.794,65.369C271.932,73.14 276.001,85.571 276.001,102.661L276.001,189.941L255.737,189.941Z" style="fill:rgb(68,72,81);fill-rule:nonzero;"/>
            </g>
            <g transform="matrix(0.678973,0,0,1.98666,0,0)">
                <path d="M336.67,56.152L336.67,142.944C336.67,153.849 339.152,161.987 344.116,167.358C349.08,172.729 356.852,175.415 367.432,175.415C381.429,175.415 391.663,171.59 398.132,163.94C404.602,156.291 407.837,143.799 407.837,126.465L407.837,56.152L428.101,56.152L428.101,189.941L411.377,189.941L408.447,171.997L407.349,171.997C403.198,178.589 397.441,183.634 390.076,187.134C382.711,190.633 374.308,192.383 364.868,192.383C348.592,192.383 336.405,188.517 328.308,180.786C320.211,173.055 316.162,160.685 316.162,143.677L316.162,56.152L336.67,56.152Z" style="fill:rgb(68,72,81);fill-rule:nonzero;"/>
            </g>
            <g transform="matrix(0.678973,0,0,1.98666,0,0)">
                <path d="M562.622,189.941L562.622,103.394C562.622,92.489 560.14,84.351 555.176,78.979C550.212,73.608 542.44,70.923 531.86,70.923C517.863,70.923 507.609,74.707 501.099,82.275C494.588,89.844 491.333,102.336 491.333,119.751L491.333,189.941L471.069,189.941L471.069,56.152L487.549,56.152L490.845,74.463L491.821,74.463C495.972,67.871 501.79,62.764 509.277,59.143C516.764,55.522 525.106,53.711 534.302,53.711C550.415,53.711 562.541,57.597 570.679,65.369C578.817,73.14 582.886,85.571 582.886,102.661L582.886,189.941L562.622,189.941Z" style="fill:rgb(68,72,81);fill-rule:nonzero;"/>
            </g>
            <path d="M484.601,190.692L455.77,414.212C451.903,444.121 447.386,465.341 442.219,477.871C437.053,490.401 430.712,496.666 423.198,496.666C418.998,496.666 414.854,495.292 410.765,492.543L410.765,460.289C413.804,462.229 417.202,463.199 420.96,463.199C430.408,463.199 437.15,447.678 441.183,416.637L446.239,378.805L409.605,111.556L424.358,111.556L444.25,263.126C448.615,297.725 451.322,322.703 452.372,338.063L453.035,338.063C453.754,329.817 455.259,315.711 457.552,295.744C459.427,279.422 464.782,235.413 473.631,163.758L484.601,190.692Z" style="fill:rgb(68,72,81);"/>
        </g>
    </g>
</svg>
